<?xml version="1.0" encoding="utf-8"?>
<!-- Generator: Adobe Illustrator 15.0.0, SVG Export Plug-In . SVG Version: 6.00 Build 0)  -->
<!DOCTYPE svg PUBLIC "-//W3C//DTD SVG 1.1//EN" "http://www.w3.org/Graphics/SVG/1.1/DTD/svg11.dtd">
<svg version="1.1" xmlns="http://www.w3.org/2000/svg" xmlns:xlink="http://www.w3.org/1999/xlink" x="0px" y="0px" width="1200px"
	 height="600px" viewBox="0 0 1200 600" enable-background="new 0 0 1200 600" xml:space="preserve">
<g id="front_view" display="none">
	<g id="Layer_1" display="inline">
	</g>
	
		<path display="inline" fill-rule="evenodd" clip-rule="evenodd" fill="#FFEC00" stroke="#000000" stroke-width="8" stroke-miterlimit="10" d="
		M236,459c0,0-58.256-26.397-41.491-41.245s-16.167-54.305-19.898-67.666s84.294,2.7,78.145-16.649s24.14,38.916,26.245,16.533
		s-19.206-34.488-0.228-52.973c0,0,97.737,67.42,287.318,11.09s362.982,125.994,362.982,125.994L945,458"/>
	
		<path display="inline" fill-rule="evenodd" clip-rule="evenodd" fill="#FFEC00" stroke="#000000" stroke-width="8" stroke-miterlimit="10" d="
		M336.911,345.436c11.476,26.862,87.351,50.903,87.351,50.903s-74.161,56.244-109.637,85.145s44.476,65.595,45.402,44.724
		s20.689-23.676,25.992-44.096s26.986-7.936,102.533-83.659C445.51,291.824,329.02,288.424,329.02,288.424l-39.799,5.729"/>
	<g id="Layer_4" display="inline">
		<path fill-rule="evenodd" clip-rule="evenodd" fill="#FFEC00" stroke="#001E2B" stroke-width="8" stroke-miterlimit="10" d="
			M1039,401h117c0,0,40.059,35.916,8.561,59H950"/>
		
			<ellipse transform="matrix(0.9485 -0.3166 0.3166 0.9485 -77.8595 79.3476)" fill-rule="evenodd" clip-rule="evenodd" fill="#FFEC00" stroke="#001E2B" stroke-width="8" stroke-miterlimit="10" cx="205.219" cy="279.244" rx="69.281" ry="83.933"/>
		<path fill-rule="evenodd" clip-rule="evenodd" fill="#001E2B" d="M190.75,242.319c0,0-19.139,59.51-16.14,81.64
			s41.935,106.529,40.466,139.326s-80.763,30.873-80.763,30.873s-49.699-311.97,47.796-297.516c0,0,23.999-38.044,71.996,6.954
			s67.497,145.645,82.496,204.816s25.499,39.672,14.999,59.171s-77.101,5.999-77.101,5.999S272.887,171.547,190.75,242.319z"/>
		<ellipse fill-rule="evenodd" clip-rule="evenodd" fill="#001E2B" cx="548.546" cy="418.845" rx="6.454" ry="4.457"/>
		<path fill-rule="evenodd" clip-rule="evenodd" fill="#FFEC00" stroke="#001E2B" stroke-width="8" stroke-miterlimit="10" d="
			M629.587,396.586c0,0,206.051,99.296,269.267,92.396C945.94,483.842,1062,409,1062,409h89.561c31.498-23.084-4.561-59-4.561-59
			h-74.053c-8.367-3.464-45.987,1.573-45.987,1.573c-30.532,7.312-73.781,24.327-131.386,52.512"/>
		<path fill-rule="evenodd" clip-rule="evenodd" fill="#FFEC00" stroke="#000000" stroke-width="8" stroke-miterlimit="10" d="
			M1145,396h11.5c4.143,0,7.5,2.234,7.5,4.85v4.417c0,2.614-3.357,4.733-7.5,4.733H1145"/>
		<path fill-rule="evenodd" clip-rule="evenodd" fill="#FFEC00" stroke="#000000" stroke-width="8" stroke-miterlimit="10" d="
			M1145,380h11.5c4.143,0,7.5,2.457,7.5,5.072v4.417c0,2.614-3.357,4.511-7.5,4.511H1145"/>
		<path fill-rule="evenodd" clip-rule="evenodd" fill="#FFEC00" stroke="#000000" stroke-width="8" stroke-miterlimit="10" d="
			M1143,366h11.5c4.143,0,7.5,1.942,7.5,4.557v4.418c0,2.614-3.357,5.025-7.5,5.025H1143"/>
		<path fill-rule="evenodd" clip-rule="evenodd" fill="#FFEC00" stroke="#000000" stroke-width="8" stroke-miterlimit="10" d="
			M1143,349h11.5c4.143,0,7.5,1.903,7.5,4.518v4.417c0,2.614-3.357,5.065-7.5,5.065H1143"/>
		<path fill-rule="evenodd" clip-rule="evenodd" fill="#FFEC00" stroke="#001E2B" stroke-width="8" stroke-miterlimit="10" d="
			M1154,447h11.5c4.143,0,7.5,2.234,7.5,4.85v4.417c0,2.614-3.357,4.733-7.5,4.733H1154"/>
		<path fill-rule="evenodd" clip-rule="evenodd" fill="#FFEC00" stroke="#000000" stroke-width="8" stroke-miterlimit="10" d="
			M1154,431h11.5c4.143,0,7.5,2.457,7.5,5.072v4.417c0,2.614-3.357,4.511-7.5,4.511H1154"/>
		<path fill-rule="evenodd" clip-rule="evenodd" fill="#FFEC00" stroke="#000000" stroke-width="8" stroke-miterlimit="10" d="
			M1152,417h11.5c4.143,0,7.5,1.942,7.5,4.557v4.418c0,2.614-3.357,5.025-7.5,5.025H1152"/>
		<path fill-rule="evenodd" clip-rule="evenodd" fill="#FFEC00" stroke="#001E2B" stroke-width="8" stroke-miterlimit="10" d="
			M1152,400h11.5c4.143,0,7.5,1.903,7.5,4.518v4.417c0,2.614-3.357,5.065-7.5,5.065H1152"/>
		<path fill-rule="evenodd" clip-rule="evenodd" fill="#FFEC00" stroke="#000000" stroke-width="8" stroke-miterlimit="10" d="
			M362.348,380.823c5.209,15.8-6.938,34.005-27.131,40.664c-20.194,6.657-40.787-0.753-45.996-16.552"/>
		<path fill-rule="evenodd" clip-rule="evenodd" fill="#FFEC00" stroke="#000000" stroke-width="8" stroke-miterlimit="10" d="
			M282.882,427.271c5.485,15.706-6.342,34.121-26.417,41.132c-20.074,7.01-40.793-0.04-46.278-15.745"/>
		
			<ellipse transform="matrix(0.9183 -0.3959 0.3959 0.9183 -161.7874 138.1374)" fill-rule="evenodd" clip-rule="evenodd" cx="253.745" cy="461" rx="18.745" ry="4"/>
		
			<ellipse transform="matrix(0.8279 -0.5609 0.5609 0.8279 -172.6183 261.4864)" fill-rule="evenodd" clip-rule="evenodd" cx="339.745" cy="412" rx="18.745" ry="3.999"/>
		<path fill-rule="evenodd" clip-rule="evenodd" d="M190.75,242.319c0,0-19.139,59.51-16.14,81.64s41.935,106.529,40.466,139.326
			s-80.763,30.873-80.763,30.873s-49.699-311.97,47.796-297.516c0,0,23.999-38.044,71.996,6.954s67.497,145.645,82.496,204.816
			s25.499,39.672,14.999,59.171s-77.101,5.999-77.101,5.999S272.887,171.547,190.75,242.319z"/>
	</g>
	
		<path display="inline" fill-rule="evenodd" clip-rule="evenodd" fill="#FFEC00" stroke="#000000" stroke-width="8" stroke-miterlimit="10" d="
		M145.533,344.583c0,0-124.289,95.906-123.103,125.702c40.191,13.993,95.631,12.154,159.403,1.935s35.274-26.976,35.274-26.976
		s-73.409-22.298-100.452-18.979s43.394-52.964,52.034-68.987c12.643-23.447-42.551-52.278-34.236-73.217
		s-9.861-39.295-11.515-23.968S101.562,300.427,145.533,344.583z"/>
	<g id="Layer_5" display="inline">
		<polygon fill-rule="evenodd" clip-rule="evenodd" points="667.229,410.018 617,380 617,410 618.702,447 		"/>
		<path fill-rule="evenodd" clip-rule="evenodd" d="M183.104,352.434C184.781,364.812,228,417,223.455,463.082
			c-3.222,32.672-89.141,31.076-89.141,31.076s-5.476-34.373-9.227-79.771"/>
	</g>
</g>
<g id="front_view_copy">
	<g id="Layer_1_copy">
	</g>
	<path fill-rule="evenodd" clip-rule="evenodd" fill="#FFEC00" stroke="#000000" stroke-width="8" stroke-miterlimit="10" d="
		M236,459c0,0-58.256-26.397-41.491-41.245s-16.167-54.305-19.898-67.666s84.294,2.7,78.145-16.649s24.14,38.916,26.245,16.533
		s-19.206-34.488-0.228-52.973c0,0,97.737,67.42,287.318,11.09s362.982,125.994,362.982,125.994L945,458"/>
	<path fill-rule="evenodd" clip-rule="evenodd" fill="#FFEC00" stroke="#000000" stroke-width="8" stroke-miterlimit="10" d="
		M-233.089,388.436c11.476,26.862,87.351,50.903,87.351,50.903s-74.161,56.244-109.637,85.145s44.476,65.595,45.402,44.724
		s20.689-23.676,25.992-44.096s26.986-7.936,102.533-83.659C-124.49,334.824-240.98,331.424-240.98,331.424l-39.799,5.729"/>
	<path fill-rule="evenodd" clip-rule="evenodd" fill="#FFEC00" stroke="#000000" stroke-width="8" stroke-miterlimit="10" d="
		M708.018,154.111c5.303-20.42,26.986-7.936,102.533-83.659C767.51-36.176,651.02-39.576,651.02-39.576l-39.799,5.729"/>
	<path fill-rule="evenodd" clip-rule="evenodd" fill="#FFEC00" stroke="#000000" stroke-width="8" stroke-miterlimit="10" d="
		M658.911,17.436c11.476,26.862,87.351,50.903,87.351,50.903s-60.061,24.489-71.358,50.55"/>
	
		<path fill-rule="evenodd" clip-rule="evenodd" fill="#FFEC00" stroke="#000000" stroke-width="8" stroke-linejoin="round" stroke-miterlimit="10" d="
		M335.504,472.283c0,0-16.066,1.831-26.916,1.831c-6.922,0-26.588,4.554-26.588,13.22c0,17.667,17.463-0.927,30.667-2.333
		c15.667-1.669,17.298-0.844-3.655,11.027c0,0-8.423,4.835-14.511,8.722c-6.917,4.416-38.79-10.914-38.25-1.5
		c0.75,13.083,24.318,13.461,30,13.25c6.75-0.25,26.417-4.333,26.417-4.333s-12.66,9.181-28.443,7.166S259.1,515.52,259.5,521.5
		c1,14.928,37.5,13.25,62.944,1.877c6.41-2.865-15.123,4.64-26.444,12.555c-17.5,12.235-10.667,16.235-6.066,16.49
		c10.174,0.563,67.976-31.558,70.066-33.822s36.724-24.6,69.391-56.6C448.763,443.023,466,411.424,466,411.424
		S372.295,278,305.647,302s55.442,107.521,91.238,116C424,424.422,351.601,470.583,335.504,472.283z"/>
	<g id="Layer_4_copy">
		<path fill-rule="evenodd" clip-rule="evenodd" fill="#FFEC00" stroke="#000000" stroke-width="8" stroke-miterlimit="10" d="
			M362.348,380.823c5.209,15.8-6.938,34.005-27.131,40.664c-20.194,6.657-40.787-0.753-45.996-16.552"/>
		
			<ellipse transform="matrix(0.8279 -0.5609 0.5609 0.8279 -172.6183 261.4864)" fill-rule="evenodd" clip-rule="evenodd" cx="339.745" cy="412" rx="18.745" ry="3.999"/>
		<path fill-rule="evenodd" clip-rule="evenodd" fill="#FFEC00" stroke="#000000" stroke-width="8" stroke-miterlimit="10" d="
			M1152,402h11.5c4.143,0,7.5,1.942,7.5,4.557v4.418c0,2.614-3.357,5.025-7.5,5.025H1152"/>
		<path fill-rule="evenodd" clip-rule="evenodd" fill="#FFEC00" stroke="#000000" stroke-width="8" stroke-miterlimit="10" d="
			M1039,401h117c0,0,2.667,29.5,8.561,59H950"/>
		
			<ellipse transform="matrix(0.9485 -0.3166 0.3166 0.9485 -77.8595 79.3476)" fill-rule="evenodd" clip-rule="evenodd" fill="#FFEC00" stroke="#000000" stroke-width="8" stroke-miterlimit="10" cx="205.219" cy="279.244" rx="69.281" ry="83.933"/>
		<path fill-rule="evenodd" clip-rule="evenodd" fill="#001E2B" d="M190.75,242.319c0,0-19.139,59.51-16.14,81.64
			s41.935,106.529,40.466,139.326s-80.763,30.873-80.763,30.873s-49.699-311.97,47.796-297.516c0,0,23.999-38.044,71.996,6.954
			s67.497,145.645,82.496,204.816s25.499,39.672,14.999,59.171s-77.101,5.999-77.101,5.999S272.887,171.547,190.75,242.319z"/>
		<ellipse fill-rule="evenodd" clip-rule="evenodd" fill="#001E2B" cx="548.546" cy="418.845" rx="6.454" ry="4.457"/>
		<path fill-rule="evenodd" clip-rule="evenodd" fill="#FFEC00" stroke="#000000" stroke-width="8" stroke-miterlimit="10" d="
			M629.587,396.586c0,0,206.051,99.296,269.267,92.396C945.94,483.842,1062,409,1062,409h89.561c-3.228-29-4.561-59-4.561-59
			h-74.053c-8.367-3.464-45.987,1.573-45.987,1.573c-30.532,7.312-78.522,25.242-136.127,53.427"/>
		<path fill-rule="evenodd" clip-rule="evenodd" fill="#FFEC00" stroke="#000000" stroke-width="8" stroke-miterlimit="10" d="
			M1145,395h11.5c4.143,0,7.5,2.234,7.5,4.85v4.417c0,2.614-3.357,4.733-7.5,4.733H1145"/>
		<path fill-rule="evenodd" clip-rule="evenodd" fill="#FFEC00" stroke="#000000" stroke-width="8" stroke-miterlimit="10" d="
			M1145,380h11.5c4.143,0,7.5,2.457,7.5,5.072v4.417c0,2.614-3.357,4.511-7.5,4.511H1145"/>
		<path fill-rule="evenodd" clip-rule="evenodd" fill="#FFEC00" stroke="#000000" stroke-width="8" stroke-miterlimit="10" d="
			M1143,366h11.5c4.143,0,7.5,1.942,7.5,4.557v4.418c0,2.614-3.357,5.025-7.5,5.025H1143"/>
		<path fill-rule="evenodd" clip-rule="evenodd" fill="#FFEC00" stroke="#000000" stroke-width="8" stroke-miterlimit="10" d="
			M1143,350h11.5c4.143,0,7.5,1.903,7.5,4.518v4.417c0,2.614-3.357,5.065-7.5,5.065H1143"/>
		<path fill-rule="evenodd" clip-rule="evenodd" fill="#FFEC00" stroke="#000000" stroke-width="8" stroke-miterlimit="10" d="
			M1154,446h11.5c4.143,0,7.5,2.234,7.5,4.85v4.417c0,2.614-3.357,4.733-7.5,4.733H1154"/>
		<path fill-rule="evenodd" clip-rule="evenodd" fill="#FFEC00" stroke="#000000" stroke-width="8" stroke-miterlimit="10" d="
			M1154,431h11.5c4.143,0,7.5,2.457,7.5,5.072v4.417c0,2.614-3.357,4.511-7.5,4.511H1154"/>
		<path fill-rule="evenodd" clip-rule="evenodd" fill="#FFEC00" stroke="#000000" stroke-width="8" stroke-miterlimit="10" d="
			M1152,417h11.5c4.143,0,7.5,1.942,7.5,4.557v4.418c0,2.614-3.357,5.025-7.5,5.025H1152"/>
		<path fill-rule="evenodd" clip-rule="evenodd" fill="#FFEC00" stroke="#000000" stroke-width="8" stroke-miterlimit="10" d="
			M282.882,427.271c5.485,15.706-6.342,34.121-26.417,41.132c-20.074,7.01-40.793-0.04-46.278-15.745"/>
		
			<ellipse transform="matrix(0.9183 -0.3959 0.3959 0.9183 -161.7874 138.1374)" fill-rule="evenodd" clip-rule="evenodd" cx="253.745" cy="461" rx="18.745" ry="4"/>
		<path fill-rule="evenodd" clip-rule="evenodd" d="M190.75,242.319c0,0-19.139,59.51-16.14,81.64s41.935,106.529,40.466,139.326
			s-80.763,30.873-80.763,30.873s-49.699-311.97,47.796-297.516c0,0,23.999-38.044,71.996,6.954s67.497,145.645,82.496,204.816
			s25.499,39.672,14.999,59.171s-77.101,5.999-77.101,5.999S272.887,171.547,190.75,242.319z"/>
	</g>
	<path fill-rule="evenodd" clip-rule="evenodd" fill="#FFEC00" stroke="#000000" stroke-width="8" stroke-miterlimit="10" d="
		M145.533,344.583c0,0-124.289,95.906-123.103,125.702c40.191,13.993,95.631,12.154,159.403,1.935s35.274-26.976,35.274-26.976
		s-73.409-22.298-100.452-18.979s43.394-52.964,52.034-68.987c12.643-23.447-42.551-52.278-34.236-73.217
		s-9.861-39.295-11.515-23.968S101.562,300.427,145.533,344.583z"/>
	<g id="Layer_5_copy">
		<polygon fill-rule="evenodd" clip-rule="evenodd" points="667.229,410.018 617,380 617,410 618.702,447 		"/>
		<path fill-rule="evenodd" clip-rule="evenodd" d="M183.104,352.434C184.781,364.812,228,417,223.455,463.082
			c-3.222,32.672-89.141,31.076-89.141,31.076s-5.476-34.373-9.227-79.771"/>
	</g>
	<g>
		
			<path fill-rule="evenodd" clip-rule="evenodd" fill="#FFEC00" stroke="#000000" stroke-width="10.1514" stroke-miterlimit="10" d="
			M350.911,66.436c11.476,26.862,87.351,50.903,87.351,50.903s-38.888,29.493-73.815,56.739l-26.367,4.402l-19.494,3.254
			c-3.268,0.546-8.206,5.256-7.327,10.518c0.879,5.264,7.241,9.086,10.509,8.541l11.264-1.88c-1.523,1.229-2.999,2.423-4.407,3.57
			l-14.585,12.538c-4.325,4.163,12.381,71.076,43.631,45.479c28.079-23,42.347-57.389,42.347-57.389
			c5.303-20.42,26.986-7.936,102.533-83.659C459.51,12.824,343.02,9.424,343.02,9.424l-39.799,5.729"/>
		
			<path fill-rule="evenodd" clip-rule="evenodd" fill="#FFEC00" stroke="#000000" stroke-width="10.6376" stroke-miterlimit="10" d="
			M324.934,204.801l-33.865,32.592c-2.387,2.297-4.029,9.582,0.033,13.804l0,0c4.063,4.222,12.292,3.78,14.68,1.483l33.865-32.591"
			/>
		
			<path fill-rule="evenodd" clip-rule="evenodd" fill="#FFEC00" stroke="#000000" stroke-width="10.6376" stroke-miterlimit="10" d="
			M352.634,237.389l-33.866,32.59c-2.388,2.298-9.617,3.738-13.679-0.483l0,0c-4.062-4.221-3.42-12.507-1.033-14.804l33.865-32.591"
			/>
		
			<path fill-rule="evenodd" clip-rule="evenodd" fill="#FFEC00" stroke="#000000" stroke-width="10.6376" stroke-miterlimit="10" d="
			M368.912,249.912l-33.866,32.59c-2.388,2.299-9.617,2.739-13.68-1.482l0,0c-4.062-4.221-3.42-11.507-1.033-13.805l33.865-32.59"/>
	</g>
	<g>
		
			<path fill-rule="evenodd" clip-rule="evenodd" fill="#FFEC00" stroke="#000000" stroke-width="10.1514" stroke-miterlimit="10" d="
			M160.911-85.564c11.476,26.862,87.351,50.903,87.351,50.903s-38.888,29.493-73.815,56.739L148.08,26.48l-19.494,3.254
			c-3.268,0.546-8.206,5.256-7.327,10.518c0.879,5.264,7.241,9.086,10.509,8.541l11.264-1.88c-1.523,1.229-2.999,2.423-4.407,3.57
			L124.04,63.021c-4.325,4.163,12.381,71.076,43.631,45.479c28.079-23,42.347-57.389,42.347-57.389
			c5.303-20.42,26.986-7.936,102.533-83.659C269.51-139.176,153.02-142.576,153.02-142.576l-39.799,5.729"/>
		
			<path fill-rule="evenodd" clip-rule="evenodd" fill="#FFEC00" stroke="#000000" stroke-width="10.6376" stroke-miterlimit="10" d="
			M134.934,52.801l-33.865,32.592c-2.387,2.297-4.029,9.582,0.033,13.804l0,0c4.063,4.222,12.292,3.78,14.68,1.483l33.865-32.591"/>
		
			<path fill-rule="evenodd" clip-rule="evenodd" fill="#FFEC00" stroke="#000000" stroke-width="10.6376" stroke-miterlimit="10" d="
			M147.921,70.101l-33.865,32.591c-2.387,2.297-3.029,10.583,1.033,14.804l0,0c4.062,4.222,11.292,2.781,13.679,0.483l33.866-32.59"
			/>
		
			<path fill-rule="evenodd" clip-rule="evenodd" fill="#FFEC00" stroke="#000000" stroke-width="10.6376" stroke-miterlimit="10" d="
			M178.912,97.912l-33.866,32.59c-2.388,2.299-9.617,2.739-13.68-1.482l0,0c-4.062-4.221-3.42-11.507-1.033-13.805l33.865-32.59"/>
	</g>
	<path fill-rule="evenodd" clip-rule="evenodd" d="M721.232,136.732c-4.992,6.286-8.412,13.534-12.887,20.163
		c-5.501,8.15-13.039,11.753-22.846,11.105c-1.014-0.067-1.704,0.383-2.078,1.037c-0.063,0.065-0.129,0.119-0.189,0.196
		c-3.631,4.584-3.168,10.49-2.595,15.997c0.498,4.795,3.402,15.226-1.638,18.479c-7.791,5.029-11.627-5.806-12.326-11.275
		c-0.766-5.994-0.3-12.042-0.195-18.061c0.168-0.204,0.32-0.432,0.433-0.708c4.282-10.562,17.148-14.233,21.747-24.903
		c1.263-2.928-3.044-5.477-4.316-2.523c-4.531,10.51-16.523,14.5-21.57,24.64c-0.722,0.365-1.265,1.068-1.271,2.122
		c-0.003,0.4-0.01,0.821-0.02,1.252c-0.081,0.951-0.109,2.201-0.115,3.663c-0.121,3.382-0.251,7.244-0.071,11.082
		c-0.306,8.871-1.689,17.777-7.568,16.83c-4.835-0.779-4.797-11.646-4.949-15.034c-0.158-3.505-0.026-7.001,0.092-10.499
		c-0.521-0.734-0.849-1.662-0.868-2.793c-0.036-2.13,0.417-4.247,1.167-6.291c-0.179-0.101-0.36-0.204-0.533-0.297
		c0.165-0.66,0.366-1.294,0.592-1.909c0.523-0.606,1.122-1.16,1.748-1.692c0.969-1.744,2.082-3.394,3.209-4.897
		c2.151-2.87,4.459-5.754,7.13-8.209c-0.144-0.055-0.295-0.098-0.453-0.125c4.547-3.507,8.182-7.381,10.052-12.916
		c0.77-2.278-2.614-4.416-4.179-2.432c-4.133,5.237-9.125,9.734-13.154,15.026c-2.744,2.708-5.159,5.711-7.236,8.98
		c-0.338,0.531-0.441,1.052-0.384,1.529c-0.156,0.287-0.303,0.583-0.447,0.879c0.774,1.66,0.687,3.691-0.976,5.389
		c-1.883,1.924-2.971,3.504-3.035,5.964c-0.007,0.261-0.035,0.508-0.073,0.748c0.795,7.01,2.099,18.801-1.514,18.296
		c-3.779-0.528-6.828-7.951-8.255-10.879c-1.998-4.103-2.623-7.309-1.486-11.766c2.646-10.372,10.501-19.687,17.668-27.288
		c6.426-6.815,14.561-14.594,23.825-17.2c3.099-0.872,1.78-5.696-1.33-4.821c-8.631,2.428-16.341,8.595-22.916,15.208
		c2.478-11.599,13.281-17.853,25.081-17.298c3.225,0.152,3.21-4.849,0-5c-15.637-0.736-28.975,9.023-30.5,25
		c-0.094,0.985,0.314,1.663,0.932,2.04c-0.706,0.778-1.401,1.554-2.074,2.317c-7.59,8.618-16.468,20.282-16.404,32.36
		c0.025,4.765,3.199,9.973,5.558,13.903c2.061,3.434,6.283,9.612,11.154,8.291c1.381-0.375,2.479-0.979,3.354-1.757
		c0.816,5.024,2.685,10.503,7.877,11.994c6.075,1.745,9.99-3.142,11.771-8.184c2.027,4,5.373,6.779,10.858,7.064
		c7.718,0.401,11.341-5.547,11.604-12.454c0.163-4.281-0.656-8.607-1.098-12.852c-0.35-3.361-1.057-8.186,1.041-11.177
		c9.151,0.35,17.048-2.669,23.143-9.733c6.024-6.981,9.331-15.839,15.052-23.045C726.75,137.771,723.237,134.208,721.232,136.732z"
		/>
	<path fill-rule="evenodd" clip-rule="evenodd" d="M210.335,711.589c-9.033,2.364-17.355,6.551-23.368,13.853
		c-5.178,6.29-7.868,14.126-10.039,21.862c-2.251,8.021-3.953,16.27-7.925,23.671c-4.786,8.921-13.107,14.003-22.668,16.614
		c-3.107,0.849-1.786,5.673,1.329,4.822c8.741-2.388,16.682-6.616,22.324-13.853c4.968-6.372,7.481-14.172,9.594-21.862
		c2.218-8.074,4.036-16.32,8.203-23.671c5.143-9.071,14.042-14.04,23.879-16.614C214.782,715.595,213.458,710.772,210.335,711.589z"
		/>
	<path fill-rule="evenodd" clip-rule="evenodd" d="M425.738,638.842c-22.042,14.978-37.358,43.307-65.403,47.747
		c-3.178,0.504-1.824,5.321,1.329,4.822c28.855-4.569,44.03-32.918,66.597-48.253C430.912,641.358,428.413,637.023,425.738,638.842z
		"/>
	<path fill-rule="evenodd" clip-rule="evenodd" d="M635.232,665.232c-9.608,9.19-16.164,21.251-22.056,33.02
		c-7.324,14.631-13.538,29.792-20.392,44.643c-6.257,13.557-12.929,27.452-22.473,39.05c-6.722,8.168-15.378,14.639-25.992,14.717
		c3.669-12.775,5.041-26.334,10.839-38.399c1.384-2.879-2.844-5.412-4.317-2.523c-4.215,8.266-9.491,16.44-18.449,20.024
		c-7.414,2.966-15.932,2.839-23.935,2.759c5.629-16.218,15.315-30.765,26.688-43.612c2.711-2.483,5.268-5.188,7.622-8.142
		c1.959-2.458-1.21-5.883-3.535-3.535c-2.579,2.604-5.094,5.292-7.542,8.049c-11.051,10.048-24.894,15.888-40.029,17.008
		c2.057-3.887,3.354-8.142,4.684-12.357c2.579-8.17,5.941-15.349,12.422-21.164c1.448-1.299,0.611-3.661-1.103-4.179
		c-5.604-1.689-11.991-1.297-17.564-3.072c2.932-8.419,8.357-15.002,16.661-18.858c9.706-4.507,21.458-3.487,31.574-1.247
		c3.142,0.695,4.477-4.125,1.329-4.822c-11.852-2.624-24.08-3.069-35.426,1.753c-10.153,4.314-16.67,13.668-19.649,23.993
		c-0.281,0.976,0.145,2.392,1.149,2.823c5.129,2.211,10.842,2.32,16.334,3.275c-3.923,4.402-6.711,9.45-8.848,15.111
		c-2.591,6.867-3.867,14.217-8.383,20.193c-1.176,1.557,0.427,3.778,2.159,3.762c11.955-0.117,23.387-2.968,33.542-8.314
		c-7.711,10.762-14.024,22.483-17.953,35.149c-0.484,1.562,0.825,3.165,2.411,3.165c9.83-0.001,20.306,0.45,29.604-3.27
		c3.976-1.59,7.332-4.011,10.236-6.921c-2.083,8.335-3.613,16.845-6.25,25.025c-0.545,1.692,0.883,2.986,2.411,3.165
		c27.598,3.227,43.373-29.52,53.205-49.929c7.29-15.131,13.642-30.693,20.875-45.852c6.233-13.062,13.1-26.824,23.688-36.952
		C641.102,666.535,637.562,663.005,635.232,665.232z"/>
	<path fill-rule="evenodd" clip-rule="evenodd" d="M133.232,703.232c-16.43,16.618-28.61,37.777-41.421,57.157
		c-6.679,10.104-13.357,20.235-20.672,29.896c-2.574,3.398-6.419,9.408-10.797,12.481c1.337-8.314,1.51-16.813,3.068-25.102
		c0.509-2.708-3.06-4.475-4.569-1.927c-4.568,7.706-9.852,15.602-18.462,19.102c-5.382,2.188-11.256,3.162-16.973,4.46
		c4.861-11.439,8.2-23.689,15.388-33.896c0.796-1.056,1.587-2.106,2.364-3.143c1.701-2.267-2.153-5.233-3.926-3.029
		c-0.135,0.167-0.255,0.341-0.387,0.509c-0.001-0.001-0.002-0.002-0.004-0.003c-0.149,0.198-0.301,0.401-0.451,0.601
		c-0.375,0.491-0.754,0.98-1.111,1.481c-14.832,19.765-33.757,44.304-60.943,39.343c8.172-20.923,25.798-35.359,44.901-46.304
		c1.035-0.532,2.052-1.087,3.023-1.701c2.721-1.719,0.311-5.877-2.523-4.316c-0.978,0.538-1.951,1.088-2.921,1.644
		c-5.231,2.687-11.161,4.402-16.605,6.323c-5.908,2.085-11.868,4.047-17.747,6.22c2.284-8.331,6.576-15.574,13.334-21.375
		c7.142-6.13,16.349-9.428,25.512-11.396c1.45-0.21,2.9-0.472,4.353-0.846c3.172-0.817,1.791-5.365-1.329-4.822
		c-1.255,0.219-2.498,0.468-3.731,0.739c-12.127,1.857-24.367-1.937-36.555-2.701c0.969-5.055,1.541-10.196,2.86-15.167
		c14.499-0.339,29.228-3.057,43.652-1.097c-0.217,1.541,1.057,3.434,3.103,3.048c22.418-4.236,43.612-13.725,62.597-26.253
		c2.678-1.767,0.176-6.099-2.523-4.316c-16.829,11.104-35.309,19.714-54.936,24.356c-0.282-0.275-0.65-0.495-1.138-0.609
		C20.277,698.538,2.554,702.359-15,702.5c-1.14,0.009-2.079,0.761-2.411,1.835c-2.01,6.51-2.437,13.38-4,20
		c-0.376,1.594,0.744,3.139,2.411,3.165c8.253,0.131,16.441,1.859,24.625,2.746c-14.697,6.714-25.861,18.432-29.036,36.089
		c-0.298,1.66,1.128,3.844,3.075,3.076c6.188-2.441,12.506-4.554,18.798-6.721c-13.241,10.357-24.186,23.198-29.874,39.645
		c-0.438,1.267,0.487,2.762,1.746,3.076c22.677,5.652,40.049-6.756,54.297-22.519c-2.483,6.31-4.804,12.714-7.792,18.846
		c-0.918,1.884,0.582,4.33,2.823,3.673c8.027-2.355,16.553-3.296,24.245-6.681c5.397-2.375,9.642-6.553,13.208-11.262
		c-0.62,6.329-1.096,12.678-2.528,18.866c-0.455,1.965,1.188,3.417,3.075,3.076c6.048-1.096,10.994-8.057,14.561-12.46
		c7.421-9.163,13.945-19.061,20.474-28.865c13.762-20.668,26.507-43.555,44.068-61.318
		C139.036,704.474,135.501,700.937,133.232,703.232z"/>
</g>
</svg>
