<?xml version="1.0" encoding="utf-8"?>
<!-- Generator: Adobe Illustrator 15.0.0, SVG Export Plug-In . SVG Version: 6.00 Build 0)  -->
<!DOCTYPE svg PUBLIC "-//W3C//DTD SVG 1.1//EN" "http://www.w3.org/Graphics/SVG/1.1/DTD/svg11.dtd">
<svg version="1.1" id="front_view" xmlns="http://www.w3.org/2000/svg" xmlns:xlink="http://www.w3.org/1999/xlink" x="0px" y="0px"
	 width="1200px" height="600px" viewBox="0 0 1200 600" enable-background="new 0 0 1200 600" xml:space="preserve">
<g id="Layer_1">
</g>
<path fill-rule="evenodd" clip-rule="evenodd" fill="#FFEC00" stroke="#001E2B" stroke-width="8" stroke-miterlimit="10" d="
	M236,459c0,0-58.256-26.397-41.491-41.245s-16.167-54.305-19.898-67.666s84.294,2.7,78.145-16.649s24.14,38.916,26.245,16.533
	s-19.206-34.488-0.228-52.973c0,0,97.737,67.42,287.318,11.09s362.982,125.994,362.982,125.994L945,458"/>
<path fill-rule="evenodd" clip-rule="evenodd" fill="#FFEC00" stroke="#001E2B" stroke-width="8" stroke-miterlimit="10" d="
	M336.911,345.436c11.476,26.862,87.351,50.903,87.351,50.903s-74.161,56.244-109.637,85.145s44.476,65.595,45.402,44.724
	s20.689-23.676,25.992-44.096s26.986-7.936,102.533-83.659C445.51,291.824,329.02,288.424,329.02,288.424l-39.799,5.729"/>
<g id="Layer_4">
	<path fill-rule="evenodd" clip-rule="evenodd" fill="#FFEC00" stroke="#001E2B" stroke-width="8" stroke-miterlimit="10" d="
		M1039,401h117c0,0,40.059,35.916,8.561,59H992"/>
	
		<ellipse transform="matrix(0.9485 -0.3166 0.3166 0.9485 -77.8595 79.3476)" fill-rule="evenodd" clip-rule="evenodd" fill="#FFEC00" stroke="#001E2B" stroke-width="8" stroke-miterlimit="10" cx="205.219" cy="279.244" rx="69.281" ry="83.933"/>
	<path fill-rule="evenodd" clip-rule="evenodd" fill="#001E2B" d="M190.75,242.319c0,0-19.139,59.51-16.14,81.64
		s41.935,106.529,40.466,139.326s-80.763,30.873-80.763,30.873s-49.699-311.97,47.796-297.516c0,0,23.999-38.044,71.996,6.954
		s67.497,145.645,82.496,204.816s25.499,39.672,14.999,59.171s-77.101,5.999-77.101,5.999S272.887,171.547,190.75,242.319z"/>
	<ellipse fill-rule="evenodd" clip-rule="evenodd" fill="#001E2B" cx="548.546" cy="418.845" rx="6.454" ry="4.457"/>
	<path fill-rule="evenodd" clip-rule="evenodd" fill="#FFEC00" stroke="#001E2B" stroke-width="8" stroke-miterlimit="10" d="
		M629.587,396.586c0,0,206.051,99.296,269.267,92.396C945.94,483.842,1062,409,1062,409h89.561c31.498-23.084-4.561-59-4.561-59
		h-74.053c-8.367-3.464-45.987,1.573-45.987,1.573c-30.532,7.312-73.781,24.327-131.386,52.512"/>
	<path fill-rule="evenodd" clip-rule="evenodd" fill="#FFEC00" stroke="#001E2B" stroke-width="8" stroke-miterlimit="10" d="
		M1145,396h11.5c4.143,0,7.5,2.234,7.5,4.85v4.417c0,2.614-3.357,4.733-7.5,4.733H1145"/>
	<path fill-rule="evenodd" clip-rule="evenodd" fill="#FFEC00" stroke="#001E2B" stroke-width="8" stroke-miterlimit="10" d="
		M1145,380h11.5c4.143,0,7.5,2.457,7.5,5.072v4.417c0,2.614-3.357,4.511-7.5,4.511H1145"/>
	<path fill-rule="evenodd" clip-rule="evenodd" fill="#FFEC00" stroke="#001E2B" stroke-width="8" stroke-miterlimit="10" d="
		M1143,366h11.5c4.143,0,7.5,1.942,7.5,4.557v4.418c0,2.614-3.357,5.025-7.5,5.025H1143"/>
	<path fill-rule="evenodd" clip-rule="evenodd" fill="#FFEC00" stroke="#001E2B" stroke-width="8" stroke-miterlimit="10" d="
		M1143,349h11.5c4.143,0,7.5,1.903,7.5,4.518v4.417c0,2.614-3.357,5.065-7.5,5.065H1143"/>
	<path fill-rule="evenodd" clip-rule="evenodd" fill="#FFEC00" stroke="#001E2B" stroke-width="8" stroke-miterlimit="10" d="
		M1154,447h11.5c4.143,0,7.5,2.234,7.5,4.85v4.417c0,2.614-3.357,4.733-7.5,4.733H1154"/>
	<path fill-rule="evenodd" clip-rule="evenodd" fill="#FFEC00" stroke="#001E2B" stroke-width="8" stroke-miterlimit="10" d="
		M1154,431h11.5c4.143,0,7.5,2.457,7.5,5.072v4.417c0,2.614-3.357,4.511-7.5,4.511H1154"/>
	<path fill-rule="evenodd" clip-rule="evenodd" fill="#FFEC00" stroke="#001E2B" stroke-width="8" stroke-miterlimit="10" d="
		M1152,417h11.5c4.143,0,7.5,1.942,7.5,4.557v4.418c0,2.614-3.357,5.025-7.5,5.025H1152"/>
	<path fill-rule="evenodd" clip-rule="evenodd" fill="#FFEC00" stroke="#001E2B" stroke-width="8" stroke-miterlimit="10" d="
		M1152,400h11.5c4.143,0,7.5,1.903,7.5,4.518v4.417c0,2.614-3.357,5.065-7.5,5.065H1152"/>
	<path fill-rule="evenodd" clip-rule="evenodd" fill="#FFEC00" stroke="#001E2B" stroke-width="8" stroke-miterlimit="10" d="
		M362.348,380.823c5.209,15.8-6.938,34.005-27.131,40.664c-20.194,6.657-40.787-0.753-45.996-16.552"/>
	<path fill-rule="evenodd" clip-rule="evenodd" fill="#FFEC00" stroke="#001E2B" stroke-width="8" stroke-miterlimit="10" d="
		M282.882,427.271c5.485,15.706-6.342,34.121-26.417,41.132c-20.074,7.01-40.793-0.04-46.278-15.745"/>
	
		<ellipse transform="matrix(0.9183 -0.3959 0.3959 0.9183 -161.7874 138.1374)" fill-rule="evenodd" clip-rule="evenodd" cx="253.745" cy="461" rx="18.745" ry="4"/>
	
		<ellipse transform="matrix(0.8279 -0.5609 0.5609 0.8279 -172.6183 261.4864)" fill-rule="evenodd" clip-rule="evenodd" cx="339.745" cy="412" rx="18.745" ry="3.999"/>
	<path fill-rule="evenodd" clip-rule="evenodd" d="M190.75,242.319c0,0-19.139,59.51-16.14,81.64s41.935,106.529,40.466,139.326
		s-80.763,30.873-80.763,30.873s-49.699-311.97,47.796-297.516c0,0,23.999-38.044,71.996,6.954s67.497,145.645,82.496,204.816
		s25.499,39.672,14.999,59.171s-77.101,5.999-77.101,5.999S272.887,171.547,190.75,242.319z"/>
</g>
<path fill-rule="evenodd" clip-rule="evenodd" fill="#FFEC00" stroke="#001E2B" stroke-width="8" stroke-miterlimit="10" d="
	M145.533,344.583c0,0-124.289,95.906-123.103,125.702c40.191,13.993,95.631,12.154,159.403,1.935s35.274-26.976,35.274-26.976
	s-73.409-22.298-100.452-18.979s43.394-52.964,52.034-68.987c12.643-23.447-42.551-52.278-34.236-73.217
	s-9.861-39.295-11.515-23.968S101.562,300.427,145.533,344.583z"/>
<g id="Layer_5">
	<polygon fill-rule="evenodd" clip-rule="evenodd" points="667.229,410.018 617,380 617,410 618.702,447 	"/>
	<path fill-rule="evenodd" clip-rule="evenodd" d="M183.104,352.434C184.781,364.812,228,417,223.455,463.082
		c-3.222,32.672-89.141,31.076-89.141,31.076s-5.476-34.373-9.227-79.771"/>
</g>
</svg>
